<svg xmlns="http://www.w3.org/2000/svg" width="32" height="32" viewBox="0 0 32 32" fill="none">
  <rect width="32" height="32" rx="8" fill="#039855"/>
  <path d="M16 24V14" stroke="white" stroke-width="2" stroke-linecap="round"/>
  <path d="M16 14C16 14 12 10 12 8C12 6 14 4 16 6C18 4 20 6 20 8C20 10 16 14 16 14Z" fill="white" opacity="0.9"/>
  <path d="M16 18C16 18 20.5 16.5 22 14C23 12.5 22 10 20 11C20 11 21 14 16 18Z" fill="white" opacity="0.7"/>
  <path d="M16 20C16 20 11.5 18.5 10 16C9 14.5 10 12 12 13C12 13 11 16 16 20Z" fill="white" opacity="0.7"/>
</svg>
